<svg width="512" height="512" version="1.1" xmlns="http://www.w3.org/2000/svg" desc="Created with imagetracer.js version 1.2.5"><path d="M 136.5 0 L 375.5 0 L 404.5 6 L 418.5 11 Q 448.2 23.8 469 45.5 Q 489 65.5 501 93.5 L 506 107.5 L 512 136.5 L 512 375.5 L 506 404.5 L 501 418.5 Q 488.2 448.2 466.5 469 Q 446.5 489 418.5 501 L 404.5 506 L 375.5 512 L 136.5 512 L 107.5 506 L 93.5 501 Q 63.1 487.9 42 465.5 Q 22.7 445.8 11 418.5 L 6 404.5 L 0 375.5 L 0 136.5 L 6 107.5 L 11 93.5 Q 24.1 63.1 46.5 42 Q 66.2 22.7 93.5 11 L 107.5 6 L 136.5 0 Z M 143 52 L 142 53 L 131 54 L 115 59 Q 96 67 83 80 Q 68 94 59 115 L 54 131 L 53 142 L 52 143 L 52 370 L 55 386 L 59 398 Q 67 416 80 430 Q 94 444 115 453 L 131 458 L 142 459 L 143 460 L 370 460 L 386 457 L 398 453 Q 416 445 430 432 Q 444 418 453 398 L 458 382 L 459 371 L 460 370 L 460 143 L 459 142 L 458 131 L 453 115 Q 445 96 432 83 Q 418 68 398 59 L 382 54 L 371 53 L 370 52 L 143 52 Z "></path><path d="M 388.5 92 L 399.5 94 Q 408.5 97.5 414 104.5 Q 421.3 112.3 421 127.5 L 418 138.5 L 407.5 151 Q 400 157 386.5 157 Q 385.3 154.7 380.5 156 L 371.5 152 L 364 145.5 L 357 131.5 L 357 117.5 Q 359.7 107.2 366.5 101 L 375.5 95 L 388.5 92 Z "></path><path d="M 249.5 123 L 262.5 123 L 263.5 124 L 279.5 125 L 296.5 129 L 309.5 134 Q 338.7 147.3 358 170.5 Q 374.1 189.4 383 215.5 L 388 238.5 L 389 262.5 L 388 263.5 L 388 273.5 L 386 284.5 L 378 309.5 Q 364.7 338.7 341.5 358 Q 322.6 374.1 296.5 383 L 273.5 388 L 249.5 389 L 248.5 388 L 238.5 388 L 227.5 386 L 202.5 378 Q 173.3 364.7 154 341.5 Q 137.9 322.6 129 296.5 L 124 273.5 L 123 249.5 L 124 248.5 L 124 238.5 L 126 227.5 L 134 202.5 Q 147.3 173.3 170.5 154 Q 186.4 140.4 207.5 132 L 227.5 126 L 238.5 124 L 248.5 124 L 249.5 123 Z M 245 176 Q 221 180 206 193 Q 182 210 176 245 L 176 268 Q 178 269 177 274 L 182 289 L 193 307 Q 210 330 245 336 L 268 336 Q 269 334 274 335 L 289 330 L 307 319 Q 330 302 336 268 L 336 245 Q 334 243 335 239 L 330 224 L 319 206 Q 306 188 284 180 L 268 176 L 245 176 Z "></path></svg>