<svg width="512" height="512" version="1.1" xmlns="http://www.w3.org/2000/svg" desc="Created with imagetracer.js version 1.2.5"><path d="M 234.5 0 L 277.5 0 L 278.5 1 L 294.5 2 L 323.5 8 L 350.5 17 Q 409.3 41.2 448 85.5 Q 479.9 120.6 498 169.5 L 506 196.5 L 511 224.5 L 511 233.5 L 512 234.5 L 512 277.5 L 511 278.5 L 511 287.5 L 510 288.5 L 509 300.5 L 501 333.5 Q 493.7 356.7 483 376.5 Q 460.4 417.9 426.5 448 Q 391.4 479.9 342.5 498 L 315.5 506 L 287.5 511 L 278.5 511 L 277.5 512 L 234.5 512 L 233.5 511 L 224.5 511 L 223.5 510 L 211.5 509 L 178.5 501 Q 156.5 494 137.5 484 Q 94.8 461.2 64 426.5 Q 32.1 391.4 14 342.5 L 6 315.5 L 1 287.5 L 1 278.5 L 0 277.5 L 0 234.5 L 1 233.5 L 1 224.5 L 2 223.5 L 3 211.5 L 10 181.5 Q 17.6 156.6 29 135.5 Q 51.4 93.9 85.5 64 Q 115.2 37.2 154.5 20 L 192.5 7 L 211.5 3 L 223.5 2 L 224.5 1 L 233.5 1 L 234.5 0 Z M 255 30 L 254 31 L 235 31 L 234 32 L 220 33 L 197 38 L 181 43 Q 138 59 108 86 Q 71 118 49 166 L 40 190 L 36 205 L 32 227 L 32 234 L 31 235 L 31 254 L 30 255 L 31 259 L 31 278 L 32 279 L 33 293 L 38 316 L 43 332 Q 59 374 86 405 Q 117 441 164 462 Q 182 471 205 476 L 227 480 L 234 480 L 235 481 L 254 481 L 255 482 L 259 481 L 278 481 L 279 480 L 293 479 L 316 474 L 332 469 Q 374 453 405 426 Q 441 394 463 347 L 472 323 L 476 308 L 480 286 L 480 279 L 481 278 L 481 259 L 482 258 L 481 254 L 481 235 L 480 234 L 479 220 L 474 197 L 469 181 Q 453 138 426 108 Q 394 70 347 49 Q 327 40 304 35 L 287 33 L 286 32 L 279 32 L 278 31 L 259 31 L 255 30 Z "></path><path d="M 151.5 141 Q 166.3 139.3 170 148.5 L 197.5 278 L 199 276.5 L 220 194.5 Q 221.6 185.6 228.5 182 L 240.5 181 Q 247.4 182.6 250 188.5 L 273.5 254 L 300 154.5 Q 301.6 145.6 308.5 142 L 320.5 141 Q 327.4 142.6 330 148.5 L 361.5 296 L 378 257.5 L 383 247.5 L 387.5 243 L 391.5 241 L 440.5 241 L 449 247.5 Q 452.5 251.5 451 260.5 L 444.5 269 L 440.5 271 L 406 271 L 374 344.5 Q 370.9 354.4 363.5 360 L 351.5 361 Q 344.6 359.4 342 353.5 L 314.5 224 L 313 225.5 L 292 307.5 Q 289.9 315.8 283.5 320 L 271.5 321 Q 264.6 319.4 262 313.5 L 238.5 248 L 212 347.5 Q 210.4 356.4 203.5 360 L 191.5 361 Q 184.6 359.4 182 353.5 L 151.5 210 L 132 258.5 Q 129.8 265.3 124.5 269 L 120.5 271 L 71.5 271 L 63 264.5 Q 59.5 260.5 61 251.5 L 67.5 243 L 71.5 241 L 106 241 L 140 153.5 Q 142.6 146.1 148.5 142 L 151.5 141 Z "></path></svg>